<?xml version="1.0" encoding="UTF-8"?>
<svg id="b" data-name="design" xmlns="http://www.w3.org/2000/svg" width="781.00977mm" height="245.36857mm" viewBox="0 0 2213.886 695.53297">
  <g>
    <path d="M746.07763,260.18515h83.76179v138.8101c-38.76893,27.76477-91.90148,42.60045-140.72128,42.60045-106.74175,0-184.76084-72.2764-184.76084-174.22875s78.0191-174.22875,186.6766-174.22875c62.70218,0,113.43774,21.53626,146.46398,61.26765l-60.30977,54.56708c-22.97537-25.37236-49.30103-37.33899-81.36939-37.33899-57.44072,0-95.733,37.81564-95.733,95.733,0,56.47825,38.29228,95.72842,94.77512,95.72842,17.70932,0,34.46076-3.35029,51.21679-11.00875v-91.90148Z" style="fill: #fff; stroke-width: 0px;"/>
    <path d="M926.09033,99.83879h94.77054v335.05634h-94.77054V99.83879Z" style="fill: #fff; stroke-width: 0px;"/>
    <path d="M1195.58459,174.98425h-102.91023v-75.14546h300.11435v75.14546h-102.43358v259.91088h-94.77054V174.98425Z" style="fill: #fff; stroke-width: 0px;"/>
    <path d="M1876.3027,99.83879h94.77054v259.9063h159.86971v75.15004h-254.64025V99.83879Z" style="fill: #fff; stroke-width: 0px;"/>
  </g>
  <g>
    <path d="M992.81652,556.26173h-27.32937v-9.90879h65.92873v9.90879h-27.32937v69.79691h-11.26999v-69.79691Z" style="fill: #fff; stroke-width: 0px;"/>
    <path d="M1124.45398,616.15444v9.9042h-57.83945v-79.7057h56.24451v9.90879h-44.85995v24.47865h39.96514v9.67963h-39.96514v25.73443h46.45489Z" style="fill: #fff; stroke-width: 0px;"/>
    <path d="M1159.20349,586.20809c0-23.57118,17.98889-40.76261,42.24297-40.76261,12.29661,0,22.99829,4.21192,30.28551,12.41119l-7.4018,7.17264c-6.14601-6.48975-13.66239-9.45047-22.42997-9.45047-17.98889,0-31.31213,12.9795-31.31213,30.62924,0,17.64516,13.32324,30.62924,31.31213,30.62924,8.76758,0,16.28396-3.0753,22.42997-9.56505l7.4018,7.17264c-7.28722,8.19927-17.98889,12.52577-30.40009,12.52577-24.13949,0-42.12839-17.19601-42.12839-40.76261Z" style="fill: #fff; stroke-width: 0px;"/>
    <path d="M1339.35367,546.35295v79.7057h-11.38915v-35.52406h-45.772v35.52406h-11.38456v-79.7057h11.38456v34.27285h45.772v-34.27285h11.38915Z" style="fill: #fff; stroke-width: 0px;"/>
    <path d="M1503.79738,574.13605c0,17.306-12.52577,27.7831-33.24623,27.7831h-19.69841v24.13949h-11.38456v-79.7057h31.08298c20.72046,0,33.24623,10.4771,33.24623,27.7831ZM1492.41281,574.13605c0-11.38456-7.63096-17.87432-22.2054-17.87432h-19.35468v35.75321h19.35468c14.57444,0,22.2054-6.48975,22.2054-17.8789Z" style="fill: #fff; stroke-width: 0px;"/>
    <path d="M1595.24971,606.13107h-42.35755l-8.76758,19.92757h-11.7283l36.09695-79.7057h11.26999l36.20695,79.7057h-11.95288l-8.76758-19.92757ZM1591.26236,597.02434l-17.19143-39.05767-17.19143,39.05767h34.38285Z" style="fill: #fff; stroke-width: 0px;"/>
    <path d="M1703.89347,626.05865l-17.19143-24.47865c-1.59494.11-3.29987.22457-5.00939.22457h-19.69841v24.25407h-11.38456v-79.7057h31.08298c20.72504,0,33.24623,10.4771,33.24623,27.7831,0,12.29661-6.37517,21.17877-17.53516,25.16612l18.90094,26.75648h-12.41119ZM1703.55431,574.13605c0-11.38456-7.63096-17.87432-22.2054-17.87432h-19.35468v35.86779h19.35468c14.57444,0,22.2054-6.60433,22.2054-17.99348Z" style="fill: #fff; stroke-width: 0px;"/>
    <path d="M1771.99919,556.26173h-27.32479v-9.90879h65.92414v9.90879h-27.32479v69.79691h-11.27457v-69.79691Z" style="fill: #fff; stroke-width: 0px;"/>
    <path d="M1914.34291,546.35295v79.7057h-9.33131l-47.82984-59.43439v59.43439h-11.38456v-79.7057h9.34048l47.82067,59.43897v-59.43897h11.38456Z" style="fill: #fff; stroke-width: 0px;"/>
    <path d="M2018.89391,616.15444v9.9042h-57.84862v-79.7057h56.25368v9.90879h-44.86912v24.47865h39.9743v9.67963h-39.9743v25.73443h46.46405Z" style="fill: #fff; stroke-width: 0px;"/>
    <path d="M2113.41696,626.05865l-17.19601-24.47865c-1.59494.11-3.29987.22457-5.01397.22457h-19.69841v24.25407h-11.38456v-79.7057h31.08298c20.72504,0,33.25539,10.4771,33.25539,27.7831,0,12.29661-6.37976,21.17877-17.53516,25.16612l18.90094,26.75648h-12.41119ZM2113.06864,574.13605c0-11.38456-7.62637-17.87432-22.20082-17.87432h-19.35926v35.86779h19.35926c14.57444,0,22.20082-6.60433,22.20082-17.99348Z" style="fill: #fff; stroke-width: 0px;"/>
  </g>
  <rect x="90.28792" y="548.35579" width="831.58166" height="78.80282" style="fill: #fff; stroke-width: 0px;"/>
  <polygon points="185.05786 359.26844 90.28732 434.89513 90.28732 359.26844 185.05786 359.26844" style="fill: #fff; stroke-width: 0px;"/>
  <path d="M249.40872,99.83887H90.97812v183.80296h94.77054v-108.17628h59.83313c56.95949,0,95.25177,33.98412,95.25177,91.90148s-38.29228,91.90148-95.25177,91.90148H90.97812v75.62669h158.4306c111.04992,0,187.15325-64.61794,187.15325-167.52817s-76.10334-167.52817-187.15325-167.52817Z" style="fill: #fff; stroke-width: 0px;"/>
  <polygon points="1665.17484 99.83887 1571.83883 99.83887 1423.93574 434.89521 1520.62204 434.89521 1574.77434 299.91663 1574.71247 299.91663 1617.78957 192.69823 1660.86667 299.91663 1660.8048 299.91663 1714.9571 434.89521 1813.55916 434.89521 1665.17484 99.83887" style="fill: #fff; stroke-width: 0px;"/>
</svg>